<svg width="100" height="100" viewBox="0 0 100 100" fill="none" xmlns="http://www.w3.org/2000/svg">
<path d="M63.7917 78.7502C59.7917 82.9168 55.2084 87.2085 50.0001 91.6668C27.7917 72.7085 16.6667 56.3335 16.6667 42.5002C16.6667 21.7502 32.5001 8.3335 50.0001 8.3335C67.4584 8.3335 83.2917 21.7085 83.3334 42.3752L92.0417 33.6668L97.9167 39.5835L79.1667 58.3335L60.4167 39.5835L66.2917 33.7085L75.0001 42.3752C74.9584 27.2918 63.9167 16.6668 50.0001 16.6668C36.0417 16.6668 25.0001 27.3752 25.0001 42.5002C25.0001 52.2502 33.1251 65.1668 50.0001 80.5835C52.6667 78.1252 55.1251 75.7502 57.3751 73.4585C56.6419 72.0117 56.2567 70.4138 56.2501 68.7918C56.2501 66.0292 57.3475 63.3796 59.3011 61.4261C61.2546 59.4726 63.9041 58.3752 66.6667 58.3752C69.4294 58.3752 72.0789 59.4726 74.0324 61.4261C75.9859 63.3796 77.0834 66.0292 77.0834 68.7918C77.082 70.4031 76.7055 71.9919 75.984 73.4325C75.2624 74.8732 74.2154 76.1261 72.9259 77.0922C71.6364 78.0584 70.1398 78.7111 68.5544 78.9989C66.9691 79.2866 65.3385 79.2015 63.7917 78.7502Z" fill="white"/>
</svg>
